<?xml version="1.0" standalone="no"?>
<!DOCTYPE svg PUBLIC "-//W3C//DTD SVG 20010904//EN"
 "http://www.w3.org/TR/2001/REC-SVG-20010904/DTD/svg10.dtd">
<svg version="1.0" xmlns="http://www.w3.org/2000/svg"
 width="270.000000pt" height="258.000000pt" viewBox="0 0 270.000000 258.000000"
 preserveAspectRatio="xMidYMid meet">

<g transform="translate(0.000000,258.000000) scale(0.100000,-0.100000)"
fill="#fbfbfbff" stroke="none">
<path d="M1331 2536 c-6 -25 -11 -67 -11 -94 0 -58 -9 -68 -71 -77 -52 -8 -61
-1 -78 60 -7 22 -20 56 -29 75 -19 37 -40 41 -98 20 -29 -11 -31 -46 -9 -129
8 -30 12 -59 8 -64 -6 -9 -88 -47 -104 -47 -5 0 -21 19 -35 43 -15 23 -40 56
-57 74 l-30 32 -38 -20 c-49 -25 -51 -53 -9 -135 16 -32 30 -64 30 -70 0 -9
-81 -74 -92 -74 -2 0 -28 23 -58 50 -71 65 -93 71 -131 34 -16 -15 -29 -35
-29 -44 0 -15 45 -74 93 -122 23 -24 22 -27 -21 -77 l-38 -44 -73 36 c-41 21
-80 37 -87 37 -8 0 -26 -18 -40 -40 l-27 -41 24 -25 c13 -14 47 -41 76 -60 29
-19 53 -37 53 -40 0 -3 -10 -28 -22 -56 -21 -49 -22 -50 -57 -44 -20 3 -64 9
-98 12 l-61 7 -11 -39 c-6 -22 -11 -45 -11 -52 0 -13 94 -62 120 -62 9 0 25
-7 37 -15 18 -13 21 -22 16 -53 -10 -64 -15 -68 -96 -75 -106 -9 -107 -10
-107 -73 0 -52 1 -53 33 -59 18 -4 57 -7 87 -8 47 -2 56 -6 67 -27 7 -14 12
-43 11 -65 l-3 -40 -69 -22 c-92 -30 -102 -40 -90 -95 l9 -43 50 1 c28 0 72 3
100 5 48 4 50 3 67 -31 29 -59 24 -72 -48 -119 -36 -24 -68 -50 -71 -59 -4 -8
3 -32 15 -51 26 -45 51 -45 136 -1 l60 30 26 -25 c15 -14 33 -37 40 -50 12
-23 10 -28 -33 -74 -26 -28 -52 -62 -59 -76 -11 -24 -8 -29 24 -62 l36 -35 43
30 c24 16 55 42 68 56 14 14 32 26 40 26 19 0 91 -57 91 -72 0 -6 -14 -39 -31
-73 -38 -78 -36 -104 13 -130 l37 -20 23 22 c13 12 37 45 53 72 17 28 37 51
47 51 15 0 108 -36 108 -42 0 -2 -7 -35 -15 -73 -22 -107 -22 -111 29 -128 24
-8 48 -12 53 -8 16 10 51 84 58 125 9 46 19 50 87 39 l53 -8 6 -75 c9 -114 12
-120 64 -120 55 0 66 17 73 115 3 38 9 73 15 77 6 3 30 9 54 13 52 8 69 -3 79
-48 3 -18 17 -53 30 -80 22 -43 27 -47 52 -41 80 20 81 23 58 134 -16 74 -12
83 42 106 51 21 59 18 88 -29 15 -23 40 -56 57 -74 l30 -32 39 21 c48 27 49
53 8 134 -16 32 -30 64 -30 71 0 10 77 73 90 73 3 0 28 -20 55 -44 74 -67 90
-74 122 -50 58 44 55 66 -25 155 l-44 49 33 45 c18 25 38 45 44 45 7 0 39 -13
71 -29 95 -48 99 -48 129 -1 14 23 25 45 23 50 -5 12 -90 81 -115 93 -12 5
-24 16 -27 23 -7 17 30 101 47 107 6 2 35 -2 62 -9 28 -8 66 -14 86 -14 35 0
37 2 49 46 16 57 7 68 -87 100 l-68 23 0 56 c1 68 9 75 90 75 80 0 107 15 111
60 1 20 -1 42 -5 49 -10 16 -72 30 -134 31 -42 0 -49 3 -57 26 -14 35 -12 90
3 102 6 5 28 13 47 17 19 4 52 16 74 27 37 19 38 21 32 60 -4 23 -9 45 -13 51
-5 9 -88 5 -160 -9 -31 -6 -34 -4 -53 37 -28 63 -25 75 23 103 23 14 56 39 72
56 l30 31 -20 37 c-12 21 -29 38 -41 40 -11 2 -51 -13 -88 -32 -37 -19 -72
-33 -79 -30 -10 4 -55 63 -65 87 -2 4 15 28 38 55 23 26 49 60 57 76 14 28 14
30 -20 64 l-35 35 -34 -21 c-18 -11 -49 -37 -67 -56 -19 -20 -41 -36 -49 -36
-8 0 -34 16 -58 35 l-43 36 30 57 c16 31 32 73 35 93 6 33 4 36 -35 54 l-41
18 -25 -23 c-14 -13 -39 -45 -56 -72 -17 -26 -37 -48 -44 -48 -20 0 -105 38
-105 47 0 4 7 41 15 82 20 95 16 108 -41 117 -53 8 -63 -1 -90 -86 -26 -79
-30 -83 -82 -75 -70 10 -72 12 -72 65 0 27 -5 71 -12 99 l-11 51 -48 0 -47 0
-11 -44z m103 -23 c3 -21 6 -59 6 -85 0 -59 23 -78 96 -78 56 0 68 9 80 55 6
25 40 102 50 113 1 2 19 -1 39 -8 l37 -12 -7 -47 c-3 -25 -11 -63 -17 -83 -9
-32 -8 -41 5 -56 20 -22 112 -56 127 -47 6 4 22 25 37 48 14 23 37 54 50 69
24 25 26 26 54 10 36 -21 36 -35 -1 -108 -16 -32 -30 -69 -30 -80 0 -22 81
-94 107 -94 7 0 28 14 46 31 17 17 47 43 65 57 l33 25 29 -28 c34 -33 31 -43
-36 -115 -24 -26 -44 -54 -44 -62 0 -23 69 -108 87 -108 8 0 44 14 78 31 73
35 90 35 113 -4 17 -28 17 -29 -13 -53 -16 -14 -47 -34 -68 -45 -21 -11 -41
-27 -44 -36 -9 -23 27 -122 48 -134 12 -6 41 -4 87 8 38 9 76 14 85 10 8 -3
18 -20 22 -38 9 -40 -2 -49 -83 -74 -83 -26 -85 -29 -78 -100 7 -73 21 -85 97
-85 82 0 109 -12 109 -49 0 -40 -22 -51 -110 -55 -39 -2 -76 -8 -81 -13 -6 -6
-11 -41 -12 -79 l-2 -68 74 -26 c84 -28 97 -42 82 -83 -12 -32 -37 -35 -121
-13 -29 8 -60 12 -68 8 -19 -7 -64 -110 -57 -131 3 -9 28 -29 56 -46 27 -16
59 -39 69 -50 19 -20 19 -21 0 -53 -19 -31 -19 -31 -59 -17 -22 7 -58 24 -80
37 -32 18 -44 21 -58 12 -21 -13 -83 -91 -83 -105 0 -6 20 -31 44 -57 24 -26
49 -58 56 -71 11 -21 9 -26 -13 -48 -29 -30 -41 -26 -117 42 -28 25 -55 45
-59 45 -20 0 -106 -68 -109 -87 -2 -10 11 -45 28 -77 39 -76 39 -100 -1 -117
-30 -12 -33 -11 -60 22 -15 19 -36 49 -46 67 -23 42 -48 48 -104 24 -67 -29
-72 -39 -54 -108 27 -102 19 -124 -41 -124 -27 0 -45 28 -64 100 -18 68 -25
73 -89 65 -77 -9 -91 -24 -91 -96 0 -85 -12 -109 -54 -109 -41 0 -46 9 -53
107 -3 40 -11 77 -18 83 -6 5 -36 12 -66 16 -65 7 -77 -2 -102 -87 -21 -69
-36 -83 -78 -74 l-32 7 8 62 c15 131 16 128 -44 158 -65 33 -77 29 -124 -45
-49 -76 -59 -83 -97 -61 -16 10 -30 24 -30 30 0 7 16 43 35 80 20 39 33 75 30
85 -8 24 -84 79 -110 79 -11 0 -38 -18 -59 -39 -22 -22 -51 -45 -67 -51 -24
-10 -30 -9 -49 10 -27 27 -20 49 40 114 22 24 40 53 40 65 0 23 -53 96 -76
105 -8 3 -46 -10 -86 -29 -40 -19 -77 -35 -83 -35 -5 0 -18 14 -28 31 -21 38
-16 46 64 96 32 19 61 43 64 53 3 10 -6 44 -20 75 l-25 58 -48 -7 c-152 -22
-144 -23 -156 26 -5 24 -2 30 32 47 21 11 54 22 75 26 49 9 60 26 58 86 -2 79
-9 85 -94 92 -101 9 -107 12 -107 57 0 35 2 38 37 44 21 3 59 6 84 6 57 0 74
18 83 85 8 64 -2 76 -76 98 -79 24 -98 43 -86 85 10 36 12 37 137 10 48 -11
55 -10 67 7 22 30 47 103 41 119 -3 8 -30 30 -59 49 -75 48 -85 61 -67 94 7
14 19 28 26 30 7 3 43 -9 79 -26 36 -17 74 -31 84 -31 22 0 90 81 90 107 0 11
-12 30 -26 44 -15 13 -40 42 -56 63 l-28 39 22 24 c31 33 50 29 111 -27 30
-27 63 -50 74 -50 26 0 103 67 103 90 0 10 -11 40 -25 67 -41 82 -42 99 -4
119 l33 17 29 -34 c16 -19 37 -51 48 -71 22 -44 40 -49 97 -28 68 26 79 41 64
95 -7 25 -12 65 -12 89 0 41 2 44 32 50 40 8 51 -5 75 -84 23 -78 39 -90 105
-78 29 5 58 14 64 19 6 5 14 43 17 84 3 41 8 79 12 85 3 5 23 10 44 10 37 0
39 -2 45 -37z"/>
<path d="M1300 2199 c0 -36 4 -49 13 -46 6 2 11 11 9 21 -4 22 11 20 26 -4 21
-33 32 -23 32 30 0 28 -4 50 -10 50 -5 0 -10 -9 -10 -20 0 -11 -3 -20 -8 -20
-4 0 -13 9 -20 20 -21 33 -32 23 -32 -31z"/>
<path d="M1403 2234 c-4 -12 3 -24 23 -41 16 -12 24 -23 19 -23 -6 0 -16 5
-23 12 -15 15 -26 4 -18 -17 4 -11 15 -15 33 -13 26 3 28 6 28 48 0 42 -2 45
-28 48 -18 2 -29 -2 -34 -14z m47 -14 c0 -5 -2 -10 -4 -10 -3 0 -8 5 -11 10
-3 6 -1 10 4 10 6 0 11 -4 11 -10z"/>
<path d="M1490 2235 c0 -8 5 -15 10 -15 6 0 8 -16 4 -41 -6 -33 -4 -41 6 -37
8 2 17 17 21 32 4 15 16 34 26 41 20 15 17 17 -39 29 -21 5 -28 3 -28 -9z"/>
<path d="M1255 2203 c10 -56 14 -68 25 -57 14 14 0 94 -17 94 -11 0 -12 -9 -8
-37z"/>
<path d="M1577 2223 c-3 -5 -8 -27 -12 -50 -5 -34 -4 -43 8 -43 14 0 27 39 27
81 0 19 -15 26 -23 12z"/>
<path d="M1147 2213 c-4 -3 -7 -22 -7 -40 0 -30 -3 -33 -20 -28 -14 5 -20 2
-20 -10 0 -26 -34 -13 -38 13 -3 19 0 23 19 20 29 -4 36 18 9 27 -25 8 -60
-19 -60 -47 0 -28 35 -57 60 -51 12 3 24 12 27 20 3 8 13 11 23 8 11 -3 20 0
24 10 6 17 36 21 36 5 0 -5 5 -10 10 -10 16 0 12 22 -12 57 -22 32 -38 40 -51
26z"/>
<path d="M1610 2210 c0 -5 5 -10 11 -10 7 0 8 -14 4 -40 -8 -48 11 -55 26 -10
6 17 17 30 25 30 28 0 13 28 -17 34 -42 8 -49 8 -49 -4z"/>
<path d="M1690 2154 c-11 -32 -10 -38 8 -56 26 -27 57 -16 71 24 14 39 14 48
0 48 -5 0 -15 -13 -20 -30 -13 -37 -44 -42 -35 -6 3 13 9 31 12 40 4 10 1 16
-9 16 -9 0 -21 -16 -27 -36z"/>
<path d="M990 2141 c5 -11 15 -32 20 -47 7 -19 14 -24 21 -17 14 14 -15 83
-36 83 -12 0 -14 -4 -5 -19z"/>
<path d="M1799 2136 c10 -11 9 -21 -4 -46 -9 -18 -14 -34 -11 -37 8 -8 34 16
41 38 4 11 16 19 28 19 l22 1 -24 19 c-28 24 -70 28 -52 6z"/>
<path d="M917 2122 c-9 -10 -17 -29 -17 -42 0 -16 -3 -20 -12 -13 -7 6 -25 13
-39 17 -24 5 -27 3 -33 -28 -8 -40 -2 -57 23 -73 27 -17 65 5 69 40 3 24 6 26
23 16 16 -8 26 -7 45 6 37 24 29 74 -10 59 -21 -8 -20 -21 2 -27 16 -4 15 -5
-2 -12 -13 -6 -23 -3 -32 10 -15 20 -9 31 19 37 25 4 26 22 1 26 -11 2 -28 -6
-37 -16z m-38 -86 c9 -10 8 -16 -3 -26 -19 -15 -36 -5 -36 21 0 22 22 25 39 5z"/>
<path d="M1230 2084 c-146 -31 -282 -106 -390 -214 -89 -89 -149 -187 -193
-314 -29 -84 -31 -101 -32 -226 0 -164 14 -223 87 -369 204 -410 731 -546
1120 -291 142 93 260 249 315 415 38 116 44 297 14 415 -91 359 -403 603 -768
599 -48 0 -117 -7 -153 -15z m339 -24 c97 -24 233 -91 309 -153 193 -159 302
-424 274 -666 -39 -327 -259 -580 -576 -661 -97 -25 -255 -27 -353 -5 -76 18
-273 110 -273 129 0 7 39 40 88 74 48 34 143 102 212 152 69 49 131 90 138 90
7 0 36 -17 65 -38 166 -123 349 -253 363 -259 20 -7 26 -31 -74 274 -42 128
-74 234 -72 236 3 2 86 62 185 132 99 70 196 140 215 154 l35 26 -275 5 -274
5 -81 247 c-44 136 -83 249 -86 253 -7 6 -43 -94 -94 -260 -18 -60 -44 -139
-57 -175 l-23 -65 -268 -3 c-147 -1 -267 -6 -267 -10 0 -4 31 -28 68 -54 109
-77 315 -228 338 -247 l20 -17 -82 -249 c-45 -137 -88 -251 -94 -253 -28 -10
-166 152 -218 253 -60 120 -77 196 -77 345 0 113 4 147 24 210 88 282 309 484
592 539 83 16 229 12 318 -9z m-179 -386 c0 -373 -8 -353 92 -218 l62 84 243
0 c134 0 243 -4 243 -8 0 -5 -17 -14 -37 -20 -21 -7 -161 -49 -311 -94 -149
-45 -269 -85 -265 -88 9 -7 54 -26 148 -61 33 -12 66 -27 73 -33 14 -13 164
-457 157 -464 -3 -3 -6 -3 -8 -1 -7 8 -296 417 -340 481 -26 37 -47 69 -47 72
0 3 -10 16 -22 29 -64 66 -148 172 -148 187 0 24 144 460 152 460 4 0 8 -147
8 -326z m-473 -195 c92 -28 232 -70 310 -93 78 -22 143 -45 144 -51 2 -5 -52
-31 -119 -57 l-122 -46 -188 135 c-201 145 -223 163 -205 163 7 0 88 -23 180
-51z m471 -295 l-3 -136 -199 -144 c-110 -79 -201 -142 -203 -140 -3 2 52 82
121 177 70 96 159 220 199 276 39 56 76 103 80 103 4 0 6 -61 5 -136z"/>
<path d="M1857 2082 c-46 -51 19 -115 67 -66 30 30 9 84 -33 84 -10 0 -25 -8
-34 -18z m51 -34 c-4 -29 -38 -38 -38 -10 0 22 8 32 27 32 9 0 13 -8 11 -22z"/>
<path d="M1985 2009 c5 -14 0 -28 -15 -44 -16 -17 -18 -25 -9 -31 7 -4 20 2
32 17 11 14 27 23 38 21 27 -5 23 13 -7 37 -34 27 -47 27 -39 0z"/>
<path d="M740 1988 c0 -16 50 -68 65 -68 20 0 48 37 35 45 -7 4 -16 2 -20 -5
-9 -14 -28 -5 -48 22 -15 21 -32 24 -32 6z"/>
<path d="M2022 1937 c-27 -29 -28 -49 -2 -72 24 -22 39 -12 22 15 -17 28 -15
36 6 17 21 -19 38 -11 20 10 -6 7 -7 17 -3 21 4 4 10 1 12 -5 8 -23 31 -14 31
12 0 21 -5 25 -33 25 -20 0 -39 -8 -53 -23z"/>
<path d="M679 1923 c-8 -23 -6 -30 14 -51 44 -44 106 2 72 54 -23 35 -72 34
-86 -3z m59 -5 c18 -18 14 -38 -7 -38 -23 0 -35 15 -27 35 7 18 18 19 34 3z"/>
<path d="M2088 1874 c-49 -26 -29 -91 24 -81 l23 4 -22 8 c-23 7 -33 44 -13
47 29 4 35 2 35 -12 0 -8 5 -16 10 -17 19 -5 10 40 -10 53 -17 10 -25 10 -47
-2z"/>
<path d="M640 1871 c0 -6 6 -13 13 -18 8 -5 2 -9 -17 -13 -41 -7 -42 -24 -3
-49 45 -27 66 -28 42 -1 -18 20 -17 20 13 20 42 0 41 19 -3 48 -39 24 -45 26
-45 13z"/>
<path d="M2138 1792 c-38 -23 -46 -46 -13 -38 23 6 24 5 13 -19 -16 -35 -4
-41 42 -20 42 19 58 52 18 40 -18 -6 -20 -4 -14 11 4 11 8 23 9 28 3 17 -27
15 -55 -2z"/>
<path d="M572 1778 c-33 -33 6 -96 52 -84 26 6 44 45 31 65 -11 19 -27 12 -20
-9 8 -25 -19 -38 -41 -19 -15 12 -14 15 5 30 20 16 18 29 -4 29 -6 0 -16 -5
-23 -12z"/>
<path d="M2183 1702 c-18 -9 -33 -22 -33 -29 0 -16 1 -16 50 3 22 9 40 22 40
30 0 17 -15 16 -57 -4z"/>
<path d="M525 1680 c-20 -39 -20 -39 20 -56 49 -20 59 -18 72 15 14 38 4 48
-20 19 -17 -22 -18 -22 -16 -3 3 37 -1 40 -21 15 l-20 -25 6 33 c8 40 -1 41
-21 2z"/>
<path d="M2186 1654 c-9 -8 -16 -20 -16 -25 0 -23 22 -49 40 -49 23 0 27 15 5
24 -20 7 -19 32 1 40 22 9 36 -2 29 -24 -3 -10 -1 -21 4 -24 16 -10 30 26 20
52 -10 27 -59 31 -83 6z"/>
<path d="M491 1588 c-12 -33 2 -68 14 -36 5 13 12 14 41 5 19 -6 37 -8 40 -4
11 11 -6 25 -36 32 -17 4 -30 13 -30 21 0 25 -18 15 -29 -18z"/>
<path d="M2215 1560 c-24 -27 -13 -68 22 -76 34 -9 57 6 61 40 6 53 -47 76
-83 36z m60 -30 c0 -8 -10 -16 -22 -18 -22 -3 -32 16 -16 32 12 11 38 2 38
-14z"/>
<path d="M511 1486 c-25 -6 -46 -16 -48 -22 -2 -7 12 -22 32 -34 25 -15 35
-29 35 -47 0 -22 -4 -24 -32 -21 -18 2 -35 -1 -38 -7 -3 -6 12 -11 33 -13 34
-3 37 -6 37 -33 0 -16 -4 -29 -10 -29 -5 0 -10 9 -10 20 0 11 -4 20 -10 20 -5
0 -10 -10 -10 -22 0 -12 -3 -18 -7 -14 -5 4 -8 13 -8 19 0 5 -6 12 -13 15 -10
3 -13 -5 -10 -29 3 -33 5 -34 50 -37 l47 -3 0 73 c0 41 1 78 2 83 1 6 -2 19
-6 29 -6 14 -3 23 10 32 30 22 5 33 -44 20z"/>
<path d="M2230 1421 c-14 -27 -13 -37 6 -55 21 -22 37 -10 21 15 -10 16 -9 21
2 28 24 15 43 1 37 -25 -5 -17 -2 -24 8 -24 20 0 29 35 16 60 -15 27 -75 28
-90 1z"/>
<path d="M2230 1306 c0 -20 5 -36 10 -36 6 0 10 9 10 20 0 11 5 20 10 20 6 0
10 -9 10 -20 0 -11 5 -20 10 -20 6 0 10 9 10 20 0 11 5 20 10 20 6 0 10 -7 8
-16 -2 -10 3 -19 10 -22 10 -3 13 5 10 29 -3 33 -5 34 -50 37 l-48 3 0 -35z"/>
<path d="M2230 1246 c0 -9 8 -16 18 -17 14 0 13 -3 -5 -16 -35 -24 -28 -40 20
-46 48 -7 73 8 37 21 l-24 9 22 12 c29 15 29 41 0 41 -13 0 -33 3 -45 6 -17 5
-23 2 -23 -10z"/>
<path d="M488 1233 c-43 -7 -36 -33 8 -30 48 3 55 -19 9 -27 -21 -4 -35 -13
-35 -22 0 -14 13 -14 73 3 24 6 23 59 -2 73 -11 5 -21 9 -23 9 -2 -1 -15 -4
-30 -6z"/>
<path d="M2290 1139 c0 -7 -14 -8 -41 -4 -33 6 -40 4 -37 -6 3 -8 13 -16 24
-17 10 -2 27 -13 36 -25 l17 -22 10 28 c14 35 14 57 1 57 -5 0 -10 -5 -10 -11z"/>
<path d="M530 1134 c0 -4 8 -13 18 -20 13 -9 14 -16 6 -24 -20 -20 -49 -8 -46
19 3 16 -1 22 -10 19 -19 -6 -22 -52 -4 -67 19 -16 66 -10 79 10 15 24 0 69
-23 69 -11 0 -20 -3 -20 -6z"/>
<path d="M2194 1079 c-3 -6 2 -16 12 -23 16 -12 15 -14 -9 -20 -27 -6 -32 -19
-28 -63 1 -13 -6 -24 -17 -27 -21 -7 -65 -79 -55 -90 3 -3 14 1 24 10 13 12
22 13 38 5 11 -6 28 -11 38 -11 14 0 10 8 -17 31 l-35 31 43 -5 c55 -7 65 13
28 52 -30 31 -32 41 -11 41 8 0 15 -4 15 -10 0 -5 11 -10 24 -10 29 0 53 52
33 68 -23 18 -76 31 -83 21z m66 -43 c0 -3 -4 -8 -10 -11 -5 -3 -10 -1 -10 4
0 6 5 11 10 11 6 0 10 -2 10 -4z"/>
<path d="M538 1034 c-31 -17 -36 -45 -13 -64 21 -18 45 -5 45 25 0 14 5 25 11
25 6 0 8 -9 4 -20 -4 -14 -2 -20 8 -20 8 0 18 -12 21 -26 9 -34 1 -42 -14 -15
-6 12 -15 19 -21 16 -5 -4 -5 -13 1 -26 13 -24 2 -25 -16 -2 -7 10 -15 15 -19
12 -9 -10 17 -59 32 -59 20 0 73 29 73 40 0 16 -23 60 -31 60 -4 0 -9 15 -11
33 -4 37 -26 44 -70 21z m12 -34 c0 -5 -4 -10 -10 -10 -5 0 -10 5 -10 10 0 6
5 10 10 10 6 0 10 -4 10 -10z"/>
<path d="M1898 640 c-7 -11 -19 -20 -26 -20 -10 0 -12 -7 -8 -25 6 -23 5 -24
-12 -14 -16 10 -30 5 -85 -25 -42 -24 -65 -42 -61 -49 5 -9 3 -8 -6 0 -18 17
-50 -2 -50 -30 -1 -20 -2 -21 -14 -4 -13 16 -36 24 -36 11 0 -3 9 -19 21 -35
27 -38 49 -38 49 1 0 34 15 40 23 10 8 -32 30 -25 23 8 -5 25 -5 26 6 5 13
-26 28 -30 28 -7 0 11 6 13 19 9 21 -6 38 10 21 20 -5 3 -10 16 -10 28 1 21 2
21 23 -6 28 -34 42 -25 21 14 -13 26 -13 29 1 29 9 0 26 -7 39 -16 29 -18 41
-6 32 32 -7 28 1 31 19 8 9 -14 16 -14 33 -5 27 14 27 29 3 59 -24 27 -37 28
-53 2z"/>
<path d="M871 619 c-6 -18 -11 -36 -11 -40 0 -12 37 -11 45 1 13 22 24 8 13
-16 -11 -22 -10 -28 7 -40 27 -20 40 -17 53 11 17 37 16 41 -18 65 -24 17 -33
19 -50 10 -19 -10 -20 -9 -14 14 9 37 -12 32 -25 -5z"/>
<path d="M991 535 c-12 -21 -16 -37 -10 -41 12 -7 12 -7 33 33 22 44 3 51 -23
8z"/>
<path d="M1046 512 c-9 -17 -16 -35 -16 -40 0 -13 47 -32 80 -32 17 0 30 -4
30 -10 0 -5 5 -10 10 -10 13 0 13 77 0 85 -6 4 -20 -5 -31 -19 -22 -28 -27
-30 -48 -17 -10 7 -11 13 -1 31 8 15 9 25 2 32 -7 7 -16 0 -26 -20z"/>
<path d="M1180 464 c-6 -14 -10 -32 -10 -39 0 -20 47 -30 65 -15 12 10 16 9
21 -3 13 -34 59 -30 74 7 8 19 9 19 9 -6 1 -29 21 -40 21 -11 0 15 1 15 18 0
26 -24 29 -22 28 21 -2 34 -4 37 -34 40 -21 2 -32 -1 -32 -10 0 -8 -4 -6 -11
5 -14 24 -55 21 -74 -5 l-17 -23 7 22 c4 16 0 25 -14 32 -30 17 -41 13 -51
-15z m126 -25 c8 -14 -11 -33 -25 -25 -11 7 -4 36 9 36 5 0 12 -5 16 -11z"/>
<path d="M1555 444 c8 -44 10 -48 23 -40 13 8 -1 69 -17 74 -11 4 -12 -4 -6
-34z"/>
<path d="M1480 462 c0 -6 -9 -8 -20 -5 -21 6 -25 -11 -14 -54 9 -34 24 -28 25
10 l1 32 7 -30 c7 -34 28 -42 55 -22 28 20 9 71 -27 75 -15 2 -27 -1 -27 -6z"/>
</g>
</svg>
